<svg xmlns="http://www.w3.org/2000/svg" xmlns:xlink="http://www.w3.org/1999/xlink" width="1126" height="635" viewBox="0 0 1126 635">
  <defs>
    <filter id="Rectangle_52" x="325" y="0" width="342" height="267" filterUnits="userSpaceOnUse">
      <feOffset input="SourceAlpha"/>
      <feGaussianBlur stdDeviation="20" result="blur"/>
      <feFlood flood-opacity="0.541"/>
      <feComposite operator="in" in2="blur"/>
      <feComposite in="SourceGraphic"/>
    </filter>
    <filter id="Rectangle_54" x="358" y="194" width="435" height="251" filterUnits="userSpaceOnUse">
      <feOffset input="SourceAlpha"/>
      <feGaussianBlur stdDeviation="20" result="blur-2"/>
      <feFlood flood-opacity="0.541"/>
      <feComposite operator="in" in2="blur-2"/>
      <feComposite in="SourceGraphic"/>
    </filter>
    <filter id="Rectangle_57" x="358" y="371" width="370" height="264" filterUnits="userSpaceOnUse">
      <feOffset input="SourceAlpha"/>
      <feGaussianBlur stdDeviation="20" result="blur-3"/>
      <feFlood flood-opacity="0.541"/>
      <feComposite operator="in" in2="blur-3"/>
      <feComposite in="SourceGraphic"/>
    </filter>
    <filter id="Rectangle_58" x="658" y="371" width="388" height="230" filterUnits="userSpaceOnUse">
      <feOffset input="SourceAlpha"/>
      <feGaussianBlur stdDeviation="20" result="blur-4"/>
      <feFlood flood-opacity="0.541"/>
      <feComposite operator="in" in2="blur-4"/>
      <feComposite in="SourceGraphic"/>
    </filter>
    <filter id="Rectangle_59" x="51" y="345" width="388" height="244" filterUnits="userSpaceOnUse">
      <feOffset input="SourceAlpha"/>
      <feGaussianBlur stdDeviation="20" result="blur-5"/>
      <feFlood flood-opacity="0.541"/>
      <feComposite operator="in" in2="blur-5"/>
      <feComposite in="SourceGraphic"/>
    </filter>
    <filter id="Rectangle_55" x="723" y="211" width="403" height="217" filterUnits="userSpaceOnUse">
      <feOffset input="SourceAlpha"/>
      <feGaussianBlur stdDeviation="20" result="blur-6"/>
      <feFlood flood-opacity="0.541"/>
      <feComposite operator="in" in2="blur-6"/>
      <feComposite in="SourceGraphic"/>
    </filter>
    <filter id="Rectangle_56" x="0" y="194" width="429" height="216" filterUnits="userSpaceOnUse">
      <feOffset input="SourceAlpha"/>
      <feGaussianBlur stdDeviation="20" result="blur-7"/>
      <feFlood flood-opacity="0.541"/>
      <feComposite operator="in" in2="blur-7"/>
      <feComposite in="SourceGraphic"/>
    </filter>
    <filter id="Rectangle_53" x="595" y="29" width="380" height="238" filterUnits="userSpaceOnUse">
      <feOffset input="SourceAlpha"/>
      <feGaussianBlur stdDeviation="20" result="blur-8"/>
      <feFlood flood-opacity="0.541"/>
      <feComposite operator="in" in2="blur-8"/>
      <feComposite in="SourceGraphic"/>
    </filter>
  </defs>
  <g id="Logos" transform="translate(-27 -1305)">
    <g transform="matrix(1, 0, 0, 1, 27, 1305)" filter="url(#Rectangle_52)">
      <rect id="Rectangle_52-2" data-name="Rectangle 52" width="222" height="147" rx="7" transform="translate(385 60)" fill="#20202c"/>
    </g>
    <g transform="matrix(1, 0, 0, 1, 27, 1305)" filter="url(#Rectangle_54)">
      <rect id="Rectangle_54-2" data-name="Rectangle 54" width="315" height="131" rx="7" transform="translate(418 254)" fill="#20202c"/>
    </g>
    <g transform="matrix(1, 0, 0, 1, 27, 1305)" filter="url(#Rectangle_57)">
      <rect id="Rectangle_57-2" data-name="Rectangle 57" width="250" height="144" rx="7" transform="translate(418 431)" fill="#20202c"/>
    </g>
    <g transform="matrix(1, 0, 0, 1, 27, 1305)" filter="url(#Rectangle_58)">
      <rect id="Rectangle_58-2" data-name="Rectangle 58" width="268" height="110" rx="7" transform="translate(718 431)" fill="#20202c"/>
    </g>
    <g transform="matrix(1, 0, 0, 1, 27, 1305)" filter="url(#Rectangle_59)">
      <rect id="Rectangle_59-2" data-name="Rectangle 59" width="268" height="124" rx="7" transform="translate(111 405)" fill="#20202c"/>
    </g>
    <g transform="matrix(1, 0, 0, 1, 27, 1305)" filter="url(#Rectangle_55)">
      <rect id="Rectangle_55-2" data-name="Rectangle 55" width="283" height="97" rx="7" transform="translate(783 271)" fill="#20202c"/>
    </g>
    <g transform="matrix(1, 0, 0, 1, 27, 1305)" filter="url(#Rectangle_56)">
      <rect id="Rectangle_56-2" data-name="Rectangle 56" width="309" height="96" rx="7" transform="translate(60 254)" fill="#20202c"/>
    </g>
    <g transform="matrix(1, 0, 0, 1, 27, 1305)" filter="url(#Rectangle_53)">
      <rect id="Rectangle_53-2" data-name="Rectangle 53" width="260" height="118" rx="7" transform="translate(655 89)" fill="#20202c"/>
    </g>
    <g id="Group_2370" data-name="Group 2370" transform="translate(485.797 1542.082)">
      <path id="Path_1553" data-name="Path 1553" d="M200.838,85.808c-4.653,8.126-9.043,12.582-15.2,15.728l12.844-31.521h-10.42L181.047,87.25C177.116,94,174.559,97.538,172,97.538c-1.311,0-2.228-.918.458-7.471l8.061-20.053H170.1l-6.63,16.37c-4.529,7.755-8.855,12.082-14.865,15.151l12.844-31.521h-10.42L144.021,87.25c-3.932,6.75-6.488,10.288-9.044,10.288-1.31,0-2.228-.918.459-7.471l8.06-20.053h-10.42L126.46,86.352c-4.353,7.344-10.052,11.912-13.634,12.1-3.407.263-3.539-3.8-3.407-6.488,4.063-.327,7.864-3.342,10.157-7.864.393-.786,2.949-6.029,2.949-9.436,0-3.146-2.162-5.5-6.357-5.5-5.7,0-10.681,4.325-10.681,4.325l6.618-16.449h-10.42L89.831,86.349c-4.539,7.718-8.915,12.106-11.476,12.106-1.114,0-2.359-.851.655-8.388l3.211-7.8c1.376-3.408,1.966-5.637,1.966-7.405,0-3.474-2.162-5.7-6.291-5.7-5.57,0-10.419,4-10.747,4.325l1.376-3.473H58.105L51.5,86.336C46.96,94.063,42.58,98.456,40.018,98.456c-1.114,0-2.294-.917.721-8.388L48.8,70.015H38.38L30.975,88.3c-4.784,11.862-.59,16.58,5.373,16.58,3.251,0,6.319-1.417,9.163-3.737l-1.167,2.885h10.42L63.61,82.2c2.753-3.146,5.767-4.653,7.34-4.653.983,0,1.769.524,1.769,1.442,0,.982-1.048,3.473-2.294,6.619l-.983,2.425c-4.653,11.6-1.835,16.842,4.981,16.842a14.892,14.892,0,0,0,9.414-3.71l-1.156,2.859H93.1L101.948,82.2c2.949-3.211,5.636-4.653,7.405-4.653,1.049,0,1.573.524,1.573,1.638a10.931,10.931,0,0,1-.786,3.276c-2.229,5.832-5.767,5.9-7.668,5.9-1.508,0-2.49.721-2.752,4-.59,7.34,3.932,12.517,10.026,12.517,4.9,0,9.836-3.334,13.875-7.467.1,5.308,3.409,7.467,7.03,7.467,4.915,0,7.93-4.063,7.93-4.063l-1.638,4c-1.442.786-5.112,2.293-7.536,3.473-3.342,1.508-7.34,4.587-7.405,9.241-.065,3.735,2.49,7.208,8.06,7.208,7.864,0,11.8-6.553,14.482-13.041.525-1.31,1.508-3.735,1.508-3.735,5.127-2.41,9.96-5.057,14.618-10.071.287,4.959,3.5,6.991,7.009,6.991,4.915,0,7.93-4.063,7.93-4.063l-1.638,4c-1.442.786-5.112,2.293-7.536,3.473-3.342,1.508-7.34,4.587-7.4,9.241-.066,3.735,2.49,7.208,8.06,7.208,7.864,0,11.8-6.553,14.482-13.041.525-1.31,1.508-3.735,1.508-3.735,7.667-3.6,14.679-7.733,21.429-19.529A5.1,5.1,0,0,0,200.838,85.808Zm-72.152,32.57a1.685,1.685,0,0,1-1.769-1.769c0-1.114.983-2.294,2.49-3.211a52.7,52.7,0,0,1,5.111-2.491C132.355,116.74,130.128,118.378,128.686,118.378Zm37.026,0a1.685,1.685,0,0,1-1.769-1.769c0-1.114.983-2.294,2.49-3.211a52.7,52.7,0,0,1,5.112-2.491C169.382,116.74,167.154,118.378,165.712,118.378Z" transform="translate(0 -4.15)" fill="#fff"/>
      <path id="Path_1554" data-name="Path 1554" d="M60.8,63.112a5.682,5.682,0,0,0,3.589-1.324l0,0C70.672,56.4,66.09,49.2,66.09,49.2c-1.519,2.9-4.923,2.455-4.923,2.455v.007c-.12-.008-.24-.018-.363-.018a5.679,5.679,0,0,0-5.767,5.7A5.818,5.818,0,0,0,60.8,63.112Z" transform="translate(-13.839 0)" fill="#fff"/>
    </g>
    <path id="Path_1558" data-name="Path 1558" d="M665.06,621.51c-10.077,11.832-19.582,27.575-11.187,34.828,8.138,7.024,18.3,2.865,25.238.092s83.57-36.054,83.57-36.054c.738-.369.6-.832-.324-.6-.375.093-83.431,22.6-83.431,22.6C668.388,645.337,656.371,638.889,665.06,621.51Z" transform="translate(249.353 984.952)" fill="#fff"/>
    <path id="Path_1559" data-name="Path 1559" d="M648.132,120.7c2.114,0,4.619-.588,5.893-2.26,1.723-2.165,4.531-5.159,2.806-8.551-3.1,1.721-6.682,5.652-8.65,10.811Zm-5.65-3.533c3.354-5.406,9.729-12.686,15.134-11.8,2.162.94,2.9,3.348,3.638,5.5.982,6.49-3.343,11.6-8.357,14.946-2.947,1.92-7.79,1.521-8.692,2.162-1.917,5.7-3.541,12.934-4.915,18.729.048,1.322-4.571-.292-4.92-4.029.788-6.536,1.625-13.073,4.374-18.776-3.4-8.308,1.72-15.78,7.227-21.036.532,0,1.072-.151,1.417.442v-.093c.155,5.353-5.55,8.891-4.908,13.957m-16.474-13.663c4.332-.442,7.277-.839,11.015.59,1.037.537,2.653,3.089,1.127,3.781-3.19,1.575-9.681-1.868-10.368,3.047,2.167,1.183,6.09-.833,7.373,1.723-.049.982.194,2.015-.836,2.554-4.816.542-9.732-1.084-9.289,5.411,3.339,1.13,10.125-4.429,10.765.146-.836,3.339-4.621,4.4-7.62,5.361-2.512.792-4.712,1.023-6.437,0a7.259,7.259,0,0,1-2.614-4.823c-.241-2.162.991-4.128,1.48-6.043,0-.447.246-.987.1-1.426-2.413-3.293-.845-3.541,1.861-3.343a2.2,2.2,0,0,0,1.232-2.162c-3.093-.347-4.621-2.36-4.179-3.835-.542-.833,3.885-.688,6.385-.936ZM597.5,119.773c.445-4.719.5-10.412,3.788-14.451l.146-.093c4.274-.345,7.766,8.894,10.913,12.438l.144-.155c1.382-5.156-3.14-11.5-2.846-17.1.78-2.16,5.5,3.934,6.189,6.194,2.751,4.52,2.665,12.239.054,16.808-.933,1.674-3.734,2.656-5.309,1.276-3.146-3.392-5.163-8.206-7.572-11.838-2.9,3.931,3.273,14.523-4.321,13.121-1.71-.319-1.186-6.2-1.186-6.2m-2.258-1.322c0,3.538-2.75,5.9-5.5,6.689-6.34,1.771-11.454.982-15.185-4.228a4.148,4.148,0,0,1,1.767-6.05,8.144,8.144,0,0,1,5.353-.591l.59.054,4.374,1.03c2.507.539,3.693,2.408,3.244,2.943-.343.153-.282.153-.737.35H589c-2.41.591-4.031.2-5.4-.982-4.767-2.8-8.7-1.227-7.618,1.769,1.427,3.932,14.548,1.674,15.382-1.23l.144-.442v-.688c-1.174-3.195-8.109-3.635-11.843-3.83,0,0-7.474.391-7.37-1.526-1.188-3.976,1.716-5.951,4.571-7.567,6.189-2.017,18.627-2.265,19.515.048.336,2.112-1.927,2.85-3.5,3.1-5.112.726-15.233.292-15.187,2.26,6.344,2.892,17.544-2.019,17.544,8.694ZM568.358,94.322c3.288.783,5.443.02,8.347-1.455,1.764-.936,3.157-2.775,2.612-4.838-1.721-3.3-7.914,3.586-10.862,6.342h-.048Zm-1.913,31.258c1.376.545,3.931,1.086,5.062-.393l-.938-20.443c-.586-1.132-2.114-3.293-3.681-1.769-2.162,6.733-1.422,22.8-.443,22.657Zm4.711-40.6c-7.494,1.781-6.192,8.206-6.192,8.206,2.758-5.407,9.144-7.566,9.144-7.566a3.936,3.936,0,0,0-2.952-.641m7.331-1.628a5.011,5.011,0,0,1,3.485.935c2.709,2.015,1.891,5.783,1.383,6.983-2.35,5.611-10.57,9.391-17.655,7.474-1.516.386-1.917,2.107-3.288,1.273-.984-.783.393-2.111.294-2.7-1.57-2.012-3.587-4.765-1.871-8.257,2.162-4.321,5.9-6.534,10.373-7.515a7.788,7.788,0,0,1,7.321,1.711v.051Zm-71.269,27.786c2.7,4.765,7.919,7.323,12.585,9.09l.444-12.47c-4.126.054-9.588.627-13.126,3.38h.1Zm54.8-6.349c1.523,3.29,1.67,10.762-1.426,14.349-7.956,9.149-21.476,11.207-33.667,8.655-.192.935-.62,4.082-2.977,3.739-4.9-.721-4.116-5.509-4.194-6.342-1.942-.054-12.538-7.324-15.338-13.707-.539-5.6,7.91-7.185,13.168-8.558l3.067-.736c.3-3.547.571-8.847,1.993-12.485,2.313-.343,2.952,1.818,3.492,3.733l.936,8.111c7.474,0,14.455,1.128,19.857,5.9,1.332,1.419.739,3.581.1,4.959-1.721,2.707-7.521,3.3-7.47,1.919,0,0,3.339-2.214,2.653-2.9l-.238-.4c-3.895-2.551-9.251-3.581-14.461-3.581l-.319.053a83.3,83.3,0,0,1-.121,14.886,30.915,30.915,0,0,0,17.549.046c4.23-1.167,8.551-3.39,10.959-7.713,3-5.411-.738-11.307-3.737-14.946C538.378,87.1,523.182,79.828,504.217,80.523c-.982.049-5.212.391-6.437,1.327-.935.736.393.3.393.343,1.324-.444,2.114,1.276,2.165,1.276-.153,1.421-3.89.982-5.46.489a2.8,2.8,0,0,1,0-3.142c1.964-4.277,6.738-4.471,10.468-4.571,23-.35,47.726,9.083,56.624,28.451l.1.1Z" transform="translate(-305.395 1660.764)" fill="#fff"/>
    <g id="Group_2386" data-name="Group 2386" transform="translate(-1.566 1587.799)">
      <path id="Path_1560" data-name="Path 1560" d="M556.416,172.2a31.694,31.694,0,1,1-31.992,31.693A31.908,31.908,0,0,1,556.416,172.2Zm.17,4.811a26.884,26.884,0,1,1-27.136,26.882,27.064,27.064,0,0,1,27.136-26.882Z" transform="translate(15.271)" fill="#fff" fill-rule="evenodd"/>
      <path id="Path_1561" data-name="Path 1561" d="M552.462,177.782l-5.224,15.351H530.562l12.856,9.618-4.247,16.1,13.291-9.67,13.73,9.681-4.265-16.107,12.585-9.453-16.712-.165s-5.281-15.528-5.338-15.351Z" transform="translate(19.371 3.727)" fill="#fff" fill-rule="evenodd"/>
      <path id="Path_1562" data-name="Path 1562" d="M513.908,215.57h-8.722s-3.616.3-3.616,3.78v9.278s-.247,2.9,3.373,3.728h8.966v-3.728h-8.327V219.35h8.327v-3.78Z" transform="translate(0 28.973)" fill="#fff" fill-rule="evenodd"/>
      <path id="Path_1563" data-name="Path 1563" d="M522.209,215.57h-6.682s-3.62.3-3.62,3.78v9.278s-.247,2.9,3.373,3.728h7.571c3.616-.832,3.368-3.728,3.368-3.728V219.35c0-3.485-3.62-3.78-3.62-3.78Zm0,13.058h-6.285V219.35h6.285v9.278Z" transform="translate(6.906 28.973)" fill="#fff" fill-rule="evenodd"/>
      <path id="Path_1564" data-name="Path 1564" d="M523.547,215.57h9.91s3.171.687,3.171,3.78v13.006h-4.015V219.35h-5.1v13.006h-3.965V215.57Z" transform="translate(14.685 28.973)" fill="#fff" fill-rule="evenodd"/>
      <path id="Path_1565" data-name="Path 1565" d="M533.527,215.57l5.3,16.785h5.6l5.451-16.785h-4.411l-3.815,13.056-3.714-13.056Z" transform="translate(21.352 28.973)" fill="#fff" fill-rule="evenodd"/>
      <path id="Path_1566" data-name="Path 1566" d="M557.825,215.57h-8.474s-3.716.1-3.863,3.78l-.053,9.278a3.757,3.757,0,0,0,3.917,3.728h8.474v-3.728h-8.474v-2.9h8.474v-3.485l-8.474-.1v-2.8h8.474v-3.78Z" transform="translate(29.307 28.973)" fill="#fff" fill-rule="evenodd"/>
      <path id="Path_1567" data-name="Path 1567" d="M556.277,215.57h9.266s3.917,0,3.917,3.68v2.9a3.891,3.891,0,0,1-2.976,3.731l3.468,6.477H565.84l-3.37-6.674h-2.277v6.674h-3.917V215.57Zm3.917,3.68h5.349v2.9h-5.349v-2.9Z" transform="translate(36.55 28.973)" fill="#fff" fill-rule="evenodd"/>
      <path id="Path_1568" data-name="Path 1568" d="M579.751,215.57h-9.308s-3.256.786-3.209,3.68v2.9s-.229,3.466,3.209,3.513h5.915v2.967h-9.171v3.728h9.9a3.837,3.837,0,0,0,3.209-3.728l-.043-3.423a3.68,3.68,0,0,0-3.074-3.058h-5.96v-2.9h8.527v-3.68Z" transform="translate(43.839 28.973)" fill="#fff" fill-rule="evenodd"/>
      <path id="Path_1569" data-name="Path 1569" d="M590.417,215.57h-8.392a3.849,3.849,0,0,0-3.9,3.68l.042,9.465a3.716,3.716,0,0,0,3.855,3.641h8.392v-3.641h-8.392V225.8h8.392v-3.648h-8.392v-2.9h8.392v-3.68Z" transform="translate(51.148 28.973)" fill="#fff" fill-rule="evenodd"/>
    </g>
    <g id="Group_2387" data-name="Group 2387" transform="translate(254.202 1137.816)">
      <path id="Path_1570" data-name="Path 1570" d="M585.516,300.193c-.038-.007,6.392,1.111,10.674-7.728,0,0,2.369-7.915,9.469-9.359,0,0,4.624-.3,1.355,3.911,0,0-5.415,1.644-7.441,4.209,0,0-1.577.722-3.043,4.321a13.026,13.026,0,0,1-6.087,7.09,17.326,17.326,0,0,1,2.816,10.18s-1.126,2.262,3.271,5.341a5.284,5.284,0,0,0,.9,2.879,1.926,1.926,0,0,1,.451,2.67,2.176,2.176,0,0,0-.11,1.853s.45,2.054-1.58,1.128a5.509,5.509,0,0,1-2.817-2.775v-3.905s-6.089-3.082-9.926-11.612c0,0-.333-4.215-6.983-4.834,0,0-10.483.724-17.36-7.191a4.927,4.927,0,0,1-4.512,1.536s-4.733-.1-6.087-1.333l-1.694-.718s-1.351,0-1.127.924a1.689,1.689,0,0,1-2.365.308c-1.239-1.029-1.807-3.8,2.816-4.214a18.75,18.75,0,0,1,4.061.1s2.138-.718-.339-2.362c0,0-1.353.1-2.479.308,0,0-1.917-.716-2.142-1.336a1.13,1.13,0,0,1-1.58-1.03s-.675-1.127.226-1.333l.9-.924v-.724s2.705-1.643,3.379-3.186l1.576.621,1.807-.825,1.013,1.748a20.98,20.98,0,0,1,9.7,3.291s13.751,9.149,14.656,9.764a36.268,36.268,0,0,0,8.6,3.206Z" transform="translate(16.167)" fill="#fff" fill-rule="evenodd"/>
      <path id="Path_1571" data-name="Path 1571" d="M512.5,303.028h8.667V324.5a1.71,1.71,0,0,0,1.528,1.441,1.353,1.353,0,0,0,1.418-1.493l-.109-21.42h8.338l-.162,24.451s-.543,1.791-1.8,1.839l-15.7-.044s-1.856-.4-2.126-1.94c.271,1.543-.007-24.264-.055-24.306Z" transform="translate(5.79 7.224)" fill="#fff" fill-rule="evenodd"/>
      <path id="Path_1572" data-name="Path 1572" d="M496.057,302.986l17.348.046s1.938.432,2.044,1.817l.055,16.1s-1.26,2.1-2.464,1.961h-8.6l-.106,6.356H495.8s.311-26.232.259-26.281Zm9.642,2.771h0a1.306,1.306,0,0,1,1.363,1.235v11.434a1.305,1.305,0,0,1-1.363,1.232h0a1.309,1.309,0,0,1-1.363-1.232V306.992a1.309,1.309,0,0,1,1.363-1.235Z" transform="translate(0 7.21)" fill="#fff" fill-rule="evenodd"/>
      <path id="Path_1573" data-name="Path 1573" d="M537.631,329.352l.051-22.462a1.128,1.128,0,0,1,1.236-1.034,1.2,1.2,0,0,1,1.289,1.079l.048,22.371,8.361-.044-.049-22.327a1.391,1.391,0,0,1,1.387-1.079s1.188.183,1.383,1.034l-.1,22.462,8.364-.047-.05-24.3s.1-1.438-2.031-1.975-26.374.046-26.374.046a2.5,2.5,0,0,0-2.078,1.93l.05,24.392s8.412-.093,8.509-.046Z" transform="translate(11.533 7.146)" fill="#fff" fill-rule="evenodd"/>
      <path id="Path_1574" data-name="Path 1574" d="M554.214,304.944a2.276,2.276,0,0,1,1.868-1.938h15.725a1.828,1.828,0,0,1,1.606,1.985l.105,24.274-8.411.1.159-5.963s0-1.041-1.4-1.088a1.323,1.323,0,0,0-1.505,1.038l.106,5.917-8.354.044s.1-24.318.1-24.365Zm9.651,1.089h0a1.293,1.293,0,0,1,1.349,1.224v10.988a1.294,1.294,0,0,1-1.349,1.223h0a1.3,1.3,0,0,1-1.348-1.223V307.257a1.294,1.294,0,0,1,1.348-1.224Z" transform="translate(20.211 7.217)" fill="#fff" fill-rule="evenodd"/>
    </g>
    <g id="apple-itunes-seeklogo.com" transform="translate(-6315.333 -5419.338)">
      <g id="Group_2389" data-name="Group 2389" transform="translate(10 8)">
        <path id="Path_1575" data-name="Path 1575" d="M7151.89,7212.93a39.616,39.616,0,0,1-3.6,6.711c-2.334,3.556-5.625,7.979-9.7,8.019-3.625.033-4.557-2.357-9.475-2.332s-5.943,2.373-9.566,2.34c-4.078-.037-7.2-4.033-9.533-7.586-6.528-9.938-7.211-21.6-3.186-27.8,2.861-4.4,7.376-6.982,11.622-6.982,4.323,0,7.04,2.369,10.612,2.369,3.467,0,5.578-2.373,10.576-2.373a14.125,14.125,0,0,1,10.631,5.609c-9.342,5.119-7.823,18.456,1.617,22.024Z" fill="#fff"/>
        <path id="Path_1576" data-name="Path 1576" d="M7135.85,7181.32a12.123,12.123,0,0,0,2.694-8.982,13.1,13.1,0,0,0-8.461,4.551c-1.838,2.232-3.355,5.543-2.766,8.762A11.069,11.069,0,0,0,7135.85,7181.32Z" fill="#fff"/>
        <g id="Group_2388" data-name="Group 2388">
          <path id="Path_1577" data-name="Path 1577" d="M7166.579,7196.231a2.77,2.77,0,0,1-2.979,2.76,2.78,2.78,0,1,1,.036-5.555A2.769,2.769,0,0,1,7166.579,7196.231Zm-5.7,22.7v-17.764h5.521v17.764Zm14.858-19.835h-6.574v-4.649h18.815v4.649h-6.683v19.833h-5.559Zm29.783,14.135c0,2.324.073,4.212.144,5.7h-4.794l-.254-2.506h-.11a6.34,6.34,0,0,1-5.559,2.907c-3.6,0-6.248-2.254-6.248-7.738v-10.423h5.558v9.553c0,2.579.835,4.14,2.76,4.14a2.968,2.968,0,0,0,2.76-1.924,3.115,3.115,0,0,0,.179-1.2v-10.57h5.56v12.059h0Zm4.426-6.394c0-2.217-.073-4.105-.144-5.665h4.794l.254,2.434h.11a6.5,6.5,0,0,1,5.484-2.833c3.633,0,6.354,2.4,6.354,7.627v10.534h-5.52v-9.844c0-2.287-.8-3.85-2.8-3.85a2.946,2.946,0,0,0-2.8,2.068,3.947,3.947,0,0,0-.217,1.38v10.244h-5.521v-12.094h0Zm25.538,4.979c.182,2.288,2.434,3.378,5.013,3.378a15.657,15.657,0,0,0,4.9-.726l.727,3.739a17.5,17.5,0,0,1-6.43,1.125c-6.031,0-9.479-3.522-9.479-9.082,0-4.5,2.8-9.478,8.971-9.478,5.74,0,7.918,4.465,7.918,8.863a13.461,13.461,0,0,1-.18,2.179h-11.443Zm6.5-3.78c0-1.342-.583-3.6-3.124-3.6-2.325,0-3.269,2.106-3.416,3.6Zm8.39,6.065a10.836,10.836,0,0,0,4.759,1.342c1.671,0,2.362-.583,2.362-1.49s-.546-1.343-2.616-2.034c-3.669-1.234-5.086-3.232-5.049-5.3,0-3.341,2.833-5.849,7.229-5.849a11.907,11.907,0,0,1,5.013,1.019l-.981,3.814a8.717,8.717,0,0,0-3.85-1.019c-1.342,0-2.107.546-2.107,1.453,0,.836.69,1.273,2.869,2.035,3.378,1.162,4.795,2.87,4.832,5.484,0,3.306-2.615,5.776-7.7,5.776a12.539,12.539,0,0,1-5.739-1.273l.979-3.956Z" fill="#fff"/>
        </g>
      </g>
    </g>
    <g id="Group_2391" data-name="Group 2391" transform="translate(-413.84 -35.718)">
      <g id="Group_2390" data-name="Group 2390" transform="translate(560 1627)">
        <path id="Path_1578" data-name="Path 1578" d="M-16.905,419.172l6.677-30.059H1.692L2.236,405.9l8.023-16.792H22.209L15.5,419.172H6.85l3.582-16.161L2.38,419.172H-3.838l-.315-16.161-4.012,16.161Z" transform="translate(16.905 -389.112)" fill="#fff" fill-rule="evenodd"/>
        <path id="Path_1579" data-name="Path 1579" d="M19.9,394.012h8.052l1.089-4.9H20.964l-1.06,4.9Z" transform="translate(20.242 -389.112)" fill="#fff" fill-rule="evenodd"/>
        <path id="Path_1580" data-name="Path 1580" d="M22.837,418.552l-8.109-.029,4.957-22.265h8.109l-4.957,22.294Z" transform="translate(19.773 -388.464)" fill="#fff" fill-rule="evenodd"/>
        <path id="Path_1581" data-name="Path 1581" d="M50.745,396.29h7.25l-.63,2.751a7.811,7.811,0,0,1,3.725-2.522,11.757,11.757,0,0,1,3.783-.6l-1.863,7.25c-.459,0-6.075-1.088-7.823,7.48l-1.805,7.937H45.73l5.015-22.293Z" transform="translate(22.583 -388.495)" fill="#fff" fill-rule="evenodd"/>
        <path id="Path_1582" data-name="Path 1582" d="M48.358,410.352c0,.171-2.55,9.111-13.754,8.882-15.015-.315-11.118-24.385,5.932-23.525,9.685.487,9.2,8.539,9.112,8.883H41.281c.115-.315.4-3.639-2.264-3.583-4.957.144-8.482,12.437-3.008,12.551,2.522.086,3.7-2.837,3.925-3.209Z" transform="translate(20.728 -388.516)" fill="#fff" fill-rule="evenodd"/>
        <path id="Path_1583" data-name="Path 1583" d="M113.192,419.344c-16.3-.688-11.4-24.7,5.33-23.9,15.732.774,11.261,24.558-5.33,23.9Zm4.786-18.655c-5.416-1.089-9.457,11.921-4.3,12.981,5.73,1.2,9.57-11.921,4.3-12.981Z" transform="translate(27.791 -388.54)" fill="#fff" fill-rule="evenodd"/>
        <path id="Path_1584" data-name="Path 1584" d="M141.707,393.6c-2.235,0-2.664.859-3.037,2.551l-.143.745h4.728l1.175-5.388h7.394l-1.146,5.388h3.811l-1.118,5.129h-3.811l-2.092,9.771a3.132,3.132,0,0,0-.086,1.633c.315.889,3.5.516,3.5.516l-1.232,5.1s-6.476.745-8.654-.773c-.974-.66-2.034-2.035-1.375-4.986l2.493-11.233-4.441-.028-3.754,17.135h-7.966l3.725-17.135h-4.1l1.146-5.129H130.7c.717-2.866,1.347-4.814,3.124-6.3,2.435-1.977,8.769-1.2,8.769-1.2l-.889,4.212Z" transform="translate(29.822 -389.101)" fill="#fff" fill-rule="evenodd"/>
        <path id="Path_1585" data-name="Path 1585" d="M76.2,410.98l15.13-.028s-1.289,3.353,3.467,3.381c3.3,0,4.585-3.753.144-4.527-2.034-.373-9.915-1.69-9.026-7.765.745-4.985,5.931-6.734,11.606-6.648,11.6.143,9.427,6.963,9.57,7.421H99.351s.831-2.865-2.664-2.865c-3.181,0-3.955,2.865-.287,3.64,4.471.974,9.6,1.2,9.886,6.963.086,1.605-.859,9.112-12.551,8.883-10.717-.229-11.462-5.272-11.175-7.623a14.019,14.019,0,0,1-13.325,7.508c-16.305-.516-11.347-24.672,5.358-23.842,7.593.373,10.488,6.133,9.571,11.806-.143,1-.229,1.146-.516,1.232L76.2,410.98Zm-2.206-10.315c-5.358-1.06-9.37,11.891-4.24,12.981,5.674,1.175,9.484-11.921,4.24-12.981Z" transform="translate(23.808 -388.543)" fill="#fff" fill-rule="evenodd"/>
        <path id="Path_1586" data-name="Path 1586" d="M156.423,396.232a2.88,2.88,0,1,1,0,5.76,2.88,2.88,0,1,1,0-5.76Zm0,.516a2.351,2.351,0,1,0,0,4.7,2.351,2.351,0,1,0,0-4.7Zm.517,2.694.573,1.146h-.688l-.458-1.146h-.4l-.171,1.232h-.6l.488-3.066h1.4a.944.944,0,0,1,.717.946.865.865,0,0,1-.859.888Zm-.144-1.433h-.573l-.144,1h.574a.535.535,0,0,0,.63-.488.487.487,0,0,0-.488-.516Z" transform="translate(32.355 -388.467)" fill="#fff" fill-rule="evenodd"/>
      </g>
    </g>
    <g id="Group_2393" data-name="Group 2393" transform="translate(-36 -148)">
      <g id="Group_2392" data-name="Group 2392" transform="translate(498 1552)">
        <path id="Path_1587" data-name="Path 1587" d="M91.37,136.54a12.251,12.251,0,0,0,.445,3.6,21.672,21.672,0,0,0,1.3,2.915,1.761,1.761,0,0,1,.283.931,1.6,1.6,0,0,1-.769,1.215l-2.551,1.7a1.941,1.941,0,0,1-1.053.364,1.863,1.863,0,0,1-1.215-.567,12.526,12.526,0,0,1-1.458-1.9c-.4-.688-.81-1.458-1.255-2.389A14.957,14.957,0,0,1,73.191,148a11.093,11.093,0,0,1-8.1-2.915,11.422,11.422,0,0,1,.688-16.115c2.47-2.105,5.749-3.158,9.92-3.158a32.057,32.057,0,0,1,4.291.324c1.5.2,3.037.526,4.656.891v-2.956c0-3.077-.648-5.223-1.9-6.478-1.3-1.255-3.482-1.863-6.6-1.863a18.422,18.422,0,0,0-4.373.526,32.262,32.262,0,0,0-4.373,1.377,11.666,11.666,0,0,1-1.417.526,2.483,2.483,0,0,1-.648.121c-.566,0-.85-.4-.85-1.255V115.04a2.562,2.562,0,0,1,.283-1.417,3.028,3.028,0,0,1,1.134-.85A23.314,23.314,0,0,1,71,110.95a24.554,24.554,0,0,1,6.317-.769c4.818,0,8.34,1.093,10.608,3.28,2.227,2.186,3.361,5.507,3.361,9.96V136.54Zm-16.438,6.154a13.122,13.122,0,0,0,4.17-.729,9.022,9.022,0,0,0,3.846-2.591,6.427,6.427,0,0,0,1.377-2.591,14.536,14.536,0,0,0,.4-3.523v-1.7A33.816,33.816,0,0,0,81,130.871a30.51,30.51,0,0,0-3.806-.243c-2.712,0-4.7.526-6.033,1.62a5.785,5.785,0,0,0,3.766,10.446Zm32.513,4.373a2.26,2.26,0,0,1-1.539-.4,3.3,3.3,0,0,1-.85-1.579l-9.515-31.3a7.092,7.092,0,0,1-.364-1.62.888.888,0,0,1,.972-1.012h3.968a2.244,2.244,0,0,1,1.579.4,3.313,3.313,0,0,1,.81,1.579l6.8,26.8,6.316-26.8a2.84,2.84,0,0,1,.769-1.579,2.785,2.785,0,0,1,1.62-.4h3.239a2.437,2.437,0,0,1,1.62.4,2.728,2.728,0,0,1,.769,1.579l6.4,27.128,7-27.128a3.472,3.472,0,0,1,.81-1.579,2.642,2.642,0,0,1,1.579-.4H143.2a.9.9,0,0,1,1.012,1.012,4.038,4.038,0,0,1-.081.648,5.761,5.761,0,0,1-.283,1.012l-9.758,31.3a3.1,3.1,0,0,1-.85,1.579,2.59,2.59,0,0,1-1.539.4h-3.482a2.437,2.437,0,0,1-1.62-.4,2.87,2.87,0,0,1-.769-1.62l-6.276-26.116-6.235,26.075a3.16,3.16,0,0,1-.769,1.62,2.51,2.51,0,0,1-1.62.4Zm52.029,1.093a26.794,26.794,0,0,1-6.235-.729,18.419,18.419,0,0,1-4.656-1.62,2.917,2.917,0,0,1-1.255-1.134,2.858,2.858,0,0,1-.243-1.134v-2.065c0-.85.324-1.255.931-1.255a2.293,2.293,0,0,1,.729.121c.243.081.607.243,1.012.4a22.025,22.025,0,0,0,4.454,1.417,24.314,24.314,0,0,0,4.818.486,10.925,10.925,0,0,0,5.911-1.336,4.36,4.36,0,0,0,2.105-3.846,3.942,3.942,0,0,0-1.093-2.834,10.159,10.159,0,0,0-4.089-2.105l-5.871-1.822a12.35,12.35,0,0,1-6.478-4.13,9.647,9.647,0,0,1-2.024-5.871,9.011,9.011,0,0,1,1.093-4.494,10.411,10.411,0,0,1,2.915-3.32,12.851,12.851,0,0,1,4.211-2.105,17.647,17.647,0,0,1,5.1-.688,20.326,20.326,0,0,1,2.713.162c.931.121,1.782.283,2.632.445.81.2,1.579.4,2.308.648a8.842,8.842,0,0,1,1.7.729,3.5,3.5,0,0,1,1.215,1.012,2.182,2.182,0,0,1,.364,1.336v1.9c0,.85-.324,1.3-.931,1.3a4.212,4.212,0,0,1-1.539-.486,18.523,18.523,0,0,0-7.774-1.579,10.451,10.451,0,0,0-5.385,1.134,3.91,3.91,0,0,0-1.9,3.6,3.823,3.823,0,0,0,1.215,2.875,12.094,12.094,0,0,0,4.454,2.227l5.75,1.822a12.315,12.315,0,0,1,6.276,3.887,9.162,9.162,0,0,1,1.863,5.669,10.409,10.409,0,0,1-1.053,4.7,10.889,10.889,0,0,1-2.956,3.563,13.052,13.052,0,0,1-4.494,2.267A19.258,19.258,0,0,1,159.473,148.16Z" transform="translate(-57.063 -110.1)" fill="#fff"/>
        <path id="Path_1588" data-name="Path 1588" d="M159.728,234.545c-13.321,9.839-32.675,15.062-49.316,15.062A89.217,89.217,0,0,1,50.2,226.649c-1.256-1.134-.121-2.672,1.376-1.782a119.578,119.578,0,0,0,106.2,6.6C160.011,230.455,161.914,232.925,159.728,234.545Zm5.547-6.316c-1.7-2.186-11.256-1.053-15.588-.526-1.3.162-1.5-.972-.324-1.822,7.612-5.345,20.123-3.806,21.581-2.024,1.458,1.822-.4,14.333-7.531,20.326-1.093.931-2.146.445-1.66-.769C163.372,239.4,166.975,230.374,165.275,228.228Z" transform="translate(-49.665 -176.807)" fill="#fff"/>
      </g>
    </g>
  </g>
</svg>
